<?xml version="1.0" encoding="UTF-8" standalone="no"?>
<svg
   id="Layer_1"
   data-name="Layer 1"
   version="1.1"
   viewBox="0 0 2342.5501 929.94003"
   sodipodi:docname="York_SU_Full_logo_White.svg"
   width="2342.55"
   height="929.94"
   xmlns:inkscape="http://www.inkscape.org/namespaces/inkscape"
   xmlns:sodipodi="http://sodipodi.sourceforge.net/DTD/sodipodi-0.dtd"
   xmlns="http://www.w3.org/2000/svg"
   xmlns:svg="http://www.w3.org/2000/svg">
  <sodipodi:namedview
     id="namedview37"
     pagecolor="#ffffff"
     bordercolor="#000000"
     borderopacity="0.25"
     inkscape:showpageshadow="2"
     inkscape:pageopacity="0.0"
     inkscape:pagecheckerboard="0"
     inkscape:deskcolor="#d1d1d1">
    <inkscape:page
       x="0"
       y="0"
       width="2342.55"
       height="929.94"
       id="page2"
       margin="0"
       bleed="0" />
  </sodipodi:namedview>
  <defs
     id="defs1">
    <style
       id="style1">
      .cls-1 {
        fill: #fff;
        stroke-width: 0px;
      }
    </style>
  </defs>
  <path
     class="cls-1"
     d="m 491.73502,494.925 v 333.58 c 182.73,-2.7 330.88,-150.85 333.58,-333.58 z"
     id="path1" />
  <path
     class="cls-1"
     d="m 374.96502,828.545 h 56.88 v -333.62 h -333.62 v 56.87 h 199.05 l -173.23,100.02 28.44,49.26 173.23,-100.02 -100.02,173.23 49.26,28.44 100.02,-173.23 v 199.05 z"
     id="path2" />
  <path
     class="cls-1"
     d="m 98.21502,435.015 h 333.62 v -333.62 h -333.62 z m 253,-36.89 -87.05,-87.05 -87.04,87.05 -42.93,-42.92 87.05,-87.05 -87.05,-87.05 42.93,-42.92 87.04,87.05 87.05,-87.05 42.92,42.92 -87.04,87.05 87.04,87.05 z"
     id="path3" />
  <path
     class="cls-1"
     d="m 567.85502,282.145 h -0.18 c -35.31,0.1 -63.96,28.91 -63.86,64.22 0.08,26.8 17.05,50.93 42.24,60.05 l 3.34,1.21 0.08,26.66 c 21.53,-1.28 41.57,-10.3 56.9,-25.72 16.17,-16.26 25.2,-37.74 25.52,-60.61 v -1.91 c -0.09,-35.29 -28.8,-63.9 -64.03,-63.9 z"
     id="path4" />
  <path
     class="cls-1"
     d="m 742.50502,282.145 h -0.18 c -35.31,0.1 -63.96,28.91 -63.86,64.22 0.08,26.8 17.05,50.93 42.24,60.05 l 3.34,1.21 0.08,26.66 c 44.48,-2.67 80.09,-38.62 82.32,-83.17 l 0.1,-4.79 c -0.09,-35.57 -28.8,-64.18 -64.03,-64.18 z"
     id="path5" />
  <path
     class="cls-1"
     d="m 567.84502,101.395 h -0.19 c -35.31,0.1 -63.96,28.91 -63.86,64.22 0.07,26.8 17.05,50.93 42.24,60.05 l 3.34,1.21 0.08,26.66 c 45.48,-2.74 81.7,-40.26 82.42,-86.2 v -1.75 c 0,0 0,-0.3 0,-0.3 -0.05,-17.14 -6.75,-33.2 -18.88,-45.26 -12.09,-12.02 -28.11,-18.63 -45.15,-18.63 z"
     id="path6" />
  <path
     class="cls-1"
     d="m 742.49502,101.395 h -0.19 c -17.1,0.05 -33.17,6.76 -45.23,18.88 -12.06,12.13 -18.68,28.23 -18.63,45.34 0.07,26.8 17.05,50.93 42.24,60.05 l 3.34,1.21 0.08,26.66 c 21.53,-1.28 41.57,-10.3 56.9,-25.72 16.17,-16.26 25.2,-37.74 25.52,-60.61 v -1.91 c -0.04,-17.15 -6.74,-33.21 -18.87,-45.27 -12.09,-12.02 -28.11,-18.63 -45.15,-18.63 z"
     id="path7" />
  <g
     id="g23"
     transform="translate(-246.05498,-847.345)">
    <path
       class="cls-1"
       d="m 1233.94,995.83 -6.33,-1.6 c -1.96,-0.58 -3.31,-1.26 -4.05,-2.03 -0.74,-0.77 -1.1,-1.79 -1.1,-3.05 0,-0.97 0.37,-1.79 1.1,-2.46 0.74,-0.68 1.84,-1.02 3.31,-1.02 h 28.4 c 1.37,0 2.43,0.34 3.16,1.02 0.73,0.68 1.1,1.5 1.1,2.46 0,1.26 -0.32,2.27 -0.96,3.05 -0.64,0.77 -1.84,1.4 -3.6,1.88 l -7.5,1.74 v 48.79 c 0,10.81 2.28,18.77 6.84,23.88 4.56,5.11 10.86,7.66 18.91,7.66 8.05,0 14.07,-2.36 18.39,-7.07 4.31,-4.72 6.47,-12.23 6.47,-22.55 v -50.7 l -7.5,-1.74 c -1.77,-0.48 -2.97,-1.11 -3.6,-1.88 -0.64,-0.77 -0.96,-1.79 -0.96,-3.05 0,-0.97 0.37,-1.79 1.1,-2.46 0.73,-0.67 1.79,-1.02 3.16,-1.02 h 26.78 c 1.37,0 2.43,0.34 3.16,1.02 0.73,0.68 1.1,1.5 1.1,2.46 0,1.26 -0.34,2.27 -1.03,3.05 -0.69,0.77 -2.01,1.45 -3.97,2.03 l -6.33,1.6 v 48.78 c 0,13.95 -3.31,24.36 -9.93,31.24 -6.62,6.88 -16.16,10.32 -28.62,10.32 -12.46,0 -22.07,-3.19 -28.25,-9.58 -6.18,-6.39 -9.27,-16.41 -9.27,-30.06 v -50.7 z"
       id="path8" />
    <path
       class="cls-1"
       d="m 1344.13,1022.6 -8.68,-1.32 c -1.57,-0.29 -2.63,-0.74 -3.16,-1.32 -0.54,-0.59 -0.81,-1.42 -0.81,-2.5 0,-1.18 0.29,-2.08 0.88,-2.72 0.59,-0.64 1.72,-1.2 3.38,-1.69 1.67,-0.39 3.63,-0.74 5.88,-1.03 2.26,-0.29 4.41,-0.44 6.47,-0.44 3.14,0 5.27,0.59 6.4,1.77 1.13,1.18 1.69,3.29 1.69,6.33 v 2.65 l 0.29,0.15 c 1.37,-2.16 3.14,-4.07 5.3,-5.74 1.77,-1.37 4.09,-2.67 6.99,-3.9 2.89,-1.23 6.45,-1.84 10.67,-1.84 8.63,0 15.23,2.31 19.79,6.92 4.56,4.61 6.84,11.57 6.84,20.89 v 35.75 l 7.36,1.91 c 1.57,0.39 2.62,0.91 3.16,1.55 0.54,0.64 0.81,1.5 0.81,2.57 0,1.28 -0.39,2.28 -1.18,3.02 -0.79,0.74 -1.96,1.1 -3.53,1.1 h -26.34 c -1.47,0 -2.63,-0.37 -3.46,-1.1 -0.83,-0.74 -1.25,-1.74 -1.25,-3.02 0,-1.08 0.27,-1.94 0.81,-2.57 0.54,-0.64 1.59,-1.15 3.16,-1.55 l 7.36,-1.91 v -32.22 c 0,-7.55 -1.54,-12.99 -4.64,-16.33 -3.09,-3.33 -7.48,-5 -13.17,-5 -2.94,0 -5.49,0.47 -7.65,1.4 -2.16,0.93 -4.02,1.99 -5.59,3.16 -1.77,1.37 -3.29,2.89 -4.56,4.56 v 44.43 l 7.36,1.91 c 1.57,0.39 2.6,0.91 3.09,1.55 0.49,0.64 0.74,1.5 0.74,2.57 0,1.28 -0.39,2.28 -1.18,3.02 -0.79,0.74 -1.96,1.1 -3.53,1.1 h -27.22 c -1.57,0 -2.75,-0.37 -3.53,-1.1 -0.79,-0.74 -1.18,-1.74 -1.18,-3.02 0,-1.08 0.24,-1.91 0.74,-2.5 0.49,-0.59 1.57,-1.08 3.24,-1.47 l 8.24,-2.06 v -51.94 z"
       id="path9" />
    <path
       class="cls-1"
       d="m 1440.5,1022.6 -8.68,-1.32 c -1.57,-0.29 -2.62,-0.74 -3.16,-1.32 -0.54,-0.59 -0.81,-1.42 -0.81,-2.5 0,-1.18 0.29,-2.08 0.88,-2.72 0.59,-0.64 1.72,-1.2 3.38,-1.69 1.67,-0.39 3.65,-0.74 5.96,-1.03 2.3,-0.29 4.64,-0.44 6.99,-0.44 3.43,0 5.74,0.61 6.91,1.84 1.18,1.23 1.77,3.46 1.77,6.69 v 54.44 l 7.5,1.91 c 1.47,0.39 2.48,0.91 3.02,1.55 0.54,0.64 0.81,1.45 0.81,2.43 0,1.28 -0.42,2.31 -1.25,3.09 -0.83,0.79 -2.04,1.18 -3.6,1.18 H 1433 c -1.57,0 -2.75,-0.37 -3.53,-1.1 -0.79,-0.74 -1.18,-1.74 -1.18,-3.02 0,-1.08 0.24,-1.91 0.74,-2.5 0.49,-0.59 1.57,-1.08 3.24,-1.47 l 8.24,-2.06 v -51.94 z m -2.94,-32.22 c 0,-2.65 0.88,-4.88 2.65,-6.69 1.76,-1.81 3.97,-2.72 6.62,-2.72 2.65,0 4.83,0.86 6.55,2.57 1.72,1.72 2.58,3.9 2.58,6.55 0,2.65 -0.88,4.88 -2.65,6.69 -1.77,1.82 -3.97,2.72 -6.62,2.72 -2.65,0 -4.83,-0.86 -6.55,-2.57 -1.72,-1.72 -2.57,-3.9 -2.57,-6.55 z"
       id="path10" />
    <path
       class="cls-1"
       d="m 1479.56,1022.46 -4.27,-1.47 c -1.86,-0.59 -3.12,-1.3 -3.75,-2.13 -0.64,-0.83 -0.96,-1.89 -0.96,-3.16 0,-0.98 0.37,-1.79 1.1,-2.43 0.73,-0.64 1.79,-0.96 3.16,-0.96 h 24.13 c 1.47,0 2.55,0.32 3.24,0.96 0.68,0.64 1.03,1.45 1.03,2.43 0,1.28 -0.32,2.26 -0.96,2.94 -0.64,0.69 -1.89,1.37 -3.75,2.06 l -5.29,1.62 14.71,37.66 c 0.69,1.77 1.27,3.36 1.77,4.78 0.49,1.42 0.93,2.72 1.33,3.9 0.39,1.18 0.78,2.35 1.18,3.53 h 0.29 c 0.39,-1.18 0.79,-2.35 1.18,-3.53 0.39,-1.18 0.83,-2.5 1.33,-3.97 0.49,-1.47 1.08,-3.04 1.77,-4.71 l 14.86,-37.66 -5.3,-1.62 c -1.86,-0.69 -3.14,-1.37 -3.83,-2.06 -0.69,-0.69 -1.03,-1.67 -1.03,-2.94 0,-0.98 0.37,-1.79 1.1,-2.43 0.74,-0.64 1.79,-0.96 3.16,-0.96 h 21.77 c 1.47,0 2.58,0.32 3.31,0.96 0.73,0.64 1.1,1.45 1.1,2.43 0,1.28 -0.32,2.33 -0.96,3.16 -0.64,0.84 -1.89,1.55 -3.75,2.13 l -4.27,1.47 -22.51,54.58 c -0.69,1.67 -1.35,3.04 -1.98,4.12 -0.64,1.08 -1.3,1.91 -1.99,2.5 -0.69,0.59 -1.47,1.01 -2.35,1.25 -0.88,0.24 -1.91,0.37 -3.09,0.37 -1.08,0 -2.04,-0.12 -2.87,-0.37 -0.83,-0.24 -1.6,-0.66 -2.28,-1.25 -0.69,-0.59 -1.35,-1.42 -1.99,-2.5 -0.64,-1.08 -1.3,-2.45 -1.98,-4.12 z"
       id="path11" />
    <path
       class="cls-1"
       d="m 1573.5,1049.38 c 0.29,8.83 2.61,15.5 6.97,20.01 4.35,4.51 10.29,6.77 17.82,6.77 2.64,0 4.84,-0.15 6.6,-0.44 1.76,-0.29 3.28,-0.64 4.55,-1.03 1.27,-0.39 2.34,-0.74 3.23,-1.03 0.88,-0.29 1.66,-0.44 2.35,-0.44 1.17,0 2.05,0.32 2.64,0.96 0.59,0.64 0.88,1.5 0.88,2.57 0,0.69 -0.13,1.3 -0.37,1.84 -0.25,0.54 -0.66,1.1 -1.25,1.69 -1.28,1.28 -3.85,2.58 -7.72,3.9 -3.88,1.32 -8.8,1.99 -14.79,1.99 -5.3,0 -10.08,-0.81 -14.34,-2.43 -4.27,-1.62 -7.87,-3.95 -10.81,-6.99 -2.94,-3.04 -5.22,-6.79 -6.84,-11.25 -1.62,-4.46 -2.43,-9.59 -2.43,-15.38 0,-6.08 0.88,-11.55 2.65,-16.41 1.77,-4.85 4.19,-8.95 7.28,-12.28 3.09,-3.33 6.72,-5.93 10.89,-7.8 4.17,-1.86 8.66,-2.8 13.46,-2.8 8.34,0 14.96,2.58 19.86,7.72 4.9,5.15 7.36,12.53 7.36,22.14 0,2.94 -0.69,5.13 -2.06,6.55 -1.37,1.42 -3.37,2.13 -6.01,2.13 h -39.9 z m 34.87,-8.24 c -0.19,-7.01 -1.8,-12.22 -4.81,-15.63 -3.02,-3.41 -6.76,-5.11 -11.23,-5.11 -5.06,0 -9.22,1.88 -12.47,5.62 -3.26,3.75 -5.23,8.79 -5.91,15.12 h 34.43 z"
       id="path12" />
    <path
       class="cls-1"
       d="m 1649.12,1022.6 -8.68,-1.32 c -1.57,-0.29 -2.62,-0.74 -3.16,-1.32 -0.54,-0.59 -0.81,-1.42 -0.81,-2.5 0,-1.18 0.29,-2.08 0.88,-2.72 0.59,-0.64 1.72,-1.2 3.38,-1.69 1.67,-0.39 3.63,-0.74 5.89,-1.03 2.25,-0.29 4.41,-0.44 6.47,-0.44 3.14,0 5.27,0.59 6.4,1.77 1.13,1.18 1.69,3.29 1.69,6.33 v 4.41 l 0.29,0.15 c 0.98,-2.06 2.16,-3.92 3.53,-5.59 1.37,-1.67 2.89,-3.09 4.56,-4.27 1.67,-1.18 3.46,-2.11 5.37,-2.8 1.91,-0.69 3.9,-1.03 5.96,-1.03 2.35,0 4.07,0.57 5.15,1.69 1.08,1.13 1.62,2.63 1.62,4.49 0,1.37 -0.17,2.63 -0.51,3.75 -0.34,1.13 -0.81,2.06 -1.4,2.8 -0.59,0.74 -1.2,1.3 -1.84,1.69 -0.64,0.39 -1.3,0.59 -1.99,0.59 -0.59,0 -1.1,-0.07 -1.54,-0.22 -0.44,-0.15 -0.88,-0.29 -1.33,-0.44 -0.44,-0.15 -0.91,-0.32 -1.4,-0.51 -0.49,-0.2 -1.08,-0.29 -1.77,-0.29 -2.35,0 -4.69,0.66 -6.99,1.99 -2.31,1.32 -4.49,3.51 -6.55,6.55 v 41.93 l 9.12,2.06 c 1.57,0.39 2.62,0.88 3.16,1.47 0.54,0.59 0.81,1.42 0.81,2.5 0,1.28 -0.42,2.28 -1.25,3.02 -0.83,0.74 -2.04,1.1 -3.6,1.1 h -28.98 c -1.57,0 -2.75,-0.37 -3.53,-1.1 -0.78,-0.73 -1.18,-1.74 -1.18,-3.02 0,-1.08 0.24,-1.91 0.74,-2.5 0.49,-0.59 1.57,-1.08 3.24,-1.47 l 8.24,-2.06 v -51.94 z"
       id="path13" />
    <path
       class="cls-1"
       d="m 1712.53,1074.54 c 0.88,0.49 1.96,0.88 3.24,1.18 0.98,0.39 2.3,0.71 3.97,0.96 1.67,0.25 3.63,0.37 5.89,0.37 5.29,0 9.07,-0.98 11.33,-2.94 2.25,-1.96 3.38,-4.56 3.38,-7.8 0,-2.74 -0.98,-4.95 -2.94,-6.62 -1.96,-1.67 -4.37,-3.11 -7.21,-4.34 -2.85,-1.22 -5.96,-2.38 -9.34,-3.46 -3.38,-1.08 -6.5,-2.43 -9.34,-4.05 -2.85,-1.62 -5.25,-3.73 -7.21,-6.33 -1.96,-2.6 -2.94,-5.96 -2.94,-10.08 0,-2.74 0.59,-5.37 1.77,-7.87 1.18,-2.5 2.99,-4.68 5.44,-6.55 2.45,-1.86 5.49,-3.36 9.12,-4.49 3.63,-1.13 7.89,-1.69 12.8,-1.69 4.91,0 8.56,0.39 11.55,1.18 2.99,0.79 4.98,1.67 5.96,2.65 0.78,0.69 1.27,1.52 1.47,2.5 0.19,0.98 0.29,2.65 0.29,5 v 3.97 c 0,0.79 -0.05,1.96 -0.15,3.53 -0.1,1.47 -0.49,2.53 -1.18,3.16 -0.69,0.64 -1.57,0.96 -2.65,0.96 -1.08,0 -1.94,-0.32 -2.57,-0.96 -0.64,-0.64 -1.2,-1.69 -1.69,-3.16 l -2.06,-7.8 c -0.89,-0.2 -1.92,-0.49 -3.11,-0.88 -0.99,-0.2 -2.19,-0.42 -3.62,-0.66 -1.43,-0.24 -3.08,-0.37 -4.96,-0.37 -5.03,0 -8.58,0.86 -10.65,2.57 -2.07,1.72 -3.11,3.95 -3.11,6.69 0,2.74 0.96,4.91 2.88,6.47 1.92,1.57 4.33,2.92 7.24,4.05 2.91,1.13 6.03,2.23 9.38,3.31 3.35,1.08 6.47,2.48 9.38,4.19 2.91,1.72 5.32,3.9 7.24,6.55 1.92,2.65 2.88,6.08 2.88,10.3 0,3.04 -0.61,5.91 -1.84,8.61 -1.23,2.7 -3.09,5.03 -5.59,6.99 -2.5,1.96 -5.62,3.53 -9.34,4.71 -3.73,1.18 -8.14,1.77 -13.24,1.77 -5.1,0 -9.56,-0.47 -12.8,-1.4 -3.24,-0.93 -5.35,-1.94 -6.33,-3.02 -0.79,-0.69 -1.3,-1.49 -1.54,-2.43 -0.25,-0.93 -0.37,-2.62 -0.37,-5.08 v -4.34 c 0,-0.83 0.05,-1.99 0.15,-3.46 0.19,-1.57 0.64,-2.65 1.33,-3.24 0.68,-0.59 1.57,-0.88 2.65,-0.88 1.08,0 1.93,0.29 2.57,0.88 0.64,0.59 1.2,1.67 1.69,3.24 l 2.21,8.09 z"
       id="path14" />
    <path
       class="cls-1"
       d="m 1781.09,1022.6 -8.68,-1.32 c -1.57,-0.29 -2.62,-0.74 -3.16,-1.32 -0.54,-0.59 -0.81,-1.42 -0.81,-2.5 0,-1.18 0.29,-2.08 0.88,-2.72 0.59,-0.64 1.72,-1.2 3.38,-1.69 1.67,-0.39 3.65,-0.74 5.96,-1.03 2.3,-0.29 4.64,-0.44 6.99,-0.44 3.43,0 5.74,0.61 6.91,1.84 1.18,1.23 1.77,3.46 1.77,6.69 v 54.44 l 7.5,1.91 c 1.47,0.39 2.48,0.91 3.02,1.55 0.54,0.64 0.81,1.45 0.81,2.43 0,1.28 -0.42,2.31 -1.25,3.09 -0.83,0.79 -2.04,1.18 -3.6,1.18 h -27.22 c -1.57,0 -2.75,-0.37 -3.53,-1.1 -0.78,-0.73 -1.18,-1.74 -1.18,-3.02 0,-1.08 0.24,-1.91 0.74,-2.5 0.49,-0.59 1.57,-1.08 3.24,-1.47 l 8.24,-2.06 v -51.94 z m -2.94,-32.22 c 0,-2.65 0.88,-4.88 2.65,-6.69 1.76,-1.81 3.97,-2.72 6.62,-2.72 2.65,0 4.83,0.86 6.55,2.57 1.72,1.72 2.58,3.9 2.58,6.55 0,2.65 -0.88,4.88 -2.65,6.69 -1.77,1.82 -3.97,2.72 -6.62,2.72 -2.65,0 -4.83,-0.86 -6.55,-2.57 -1.72,-1.72 -2.57,-3.9 -2.57,-6.55 z"
       id="path15" />
    <path
       class="cls-1"
       d="m 1826.99,1021.57 h -7.06 c -3.24,0 -4.85,-1.37 -4.85,-4.12 0,-1.57 0.49,-2.82 1.47,-3.75 0.98,-0.93 2.45,-1.4 4.41,-1.4 h 6.03 l 2.21,-11.18 c 0.59,-3.24 1.37,-5.44 2.35,-6.62 0.98,-1.18 2.35,-1.77 4.12,-1.77 1.47,0 2.58,0.37 3.31,1.1 0.74,0.74 1.1,1.79 1.1,3.16 v 15.3 h 15.15 c 3.24,0 4.86,1.32 4.86,3.97 0,1.67 -0.49,2.97 -1.47,3.9 -0.98,0.93 -2.45,1.4 -4.41,1.4 h -14.12 v 41.23 c 0,4.7 0.71,7.97 2.13,9.83 1.42,1.86 3.7,2.79 6.84,2.79 2.16,0 3.87,-0.2 5.15,-0.59 1.27,-0.39 2.4,-0.59 3.38,-0.59 0.98,0 1.74,0.29 2.28,0.88 0.54,0.59 0.81,1.37 0.81,2.35 0,0.69 -0.15,1.32 -0.44,1.91 -0.29,0.59 -0.73,1.18 -1.32,1.77 -0.59,0.59 -2.04,1.45 -4.34,2.58 -2.31,1.13 -5.76,1.69 -10.37,1.69 -6.38,0 -10.84,-1.64 -13.39,-4.93 -2.55,-3.29 -3.83,-7.82 -3.83,-13.61 v -45.31 z"
       id="path16" />
    <path
       class="cls-1"
       d="m 1876.5,1022.46 -4.27,-1.47 c -1.86,-0.59 -3.12,-1.3 -3.75,-2.13 -0.64,-0.83 -0.96,-1.89 -0.96,-3.16 0,-0.98 0.37,-1.79 1.1,-2.43 0.73,-0.64 1.79,-0.96 3.16,-0.96 h 24.13 c 1.47,0 2.55,0.32 3.24,0.96 0.68,0.64 1.03,1.45 1.03,2.43 0,1.28 -0.32,2.26 -0.96,2.94 -0.64,0.69 -1.89,1.37 -3.75,2.06 l -5.29,1.62 14.71,37.66 c 0.69,1.77 1.27,3.36 1.77,4.78 0.49,1.42 0.93,2.72 1.33,3.9 0.39,1.18 0.78,2.35 1.18,3.53 h 0.29 c 0.39,-1.18 0.79,-2.35 1.18,-3.53 0.39,-1.18 0.83,-2.5 1.33,-3.97 0.49,-1.47 1.08,-3.04 1.77,-4.71 l 14.86,-37.66 -5.3,-1.62 c -1.86,-0.69 -3.14,-1.37 -3.83,-2.06 -0.69,-0.69 -1.03,-1.67 -1.03,-2.94 0,-0.98 0.37,-1.79 1.1,-2.43 0.74,-0.64 1.79,-0.96 3.16,-0.96 h 21.77 c 1.47,0 2.58,0.32 3.31,0.96 0.73,0.64 1.1,1.45 1.1,2.43 0,1.28 -0.32,2.33 -0.96,3.16 -0.64,0.84 -1.89,1.55 -3.75,2.13 l -4.27,1.47 -23.39,56.64 c -3.24,8.04 -6.47,14.66 -9.71,19.86 -3.24,5.2 -6.43,9.32 -9.56,12.36 -3.14,3.04 -6.3,5.15 -9.49,6.33 -3.19,1.18 -6.35,1.77 -9.49,1.77 -3.53,0 -6.16,-0.66 -7.87,-1.99 -1.72,-1.32 -2.58,-3.16 -2.58,-5.52 0,-1.96 0.49,-3.51 1.47,-4.63 0.98,-1.13 2.21,-1.69 3.68,-1.69 0.68,0 1.3,0.07 1.84,0.22 0.54,0.15 1.13,0.32 1.77,0.52 0.64,0.19 1.37,0.34 2.21,0.44 0.83,0.1 1.94,0.15 3.31,0.15 2.06,0 3.92,-0.32 5.59,-0.96 1.67,-0.64 3.29,-1.74 4.85,-3.31 1.57,-1.57 3.14,-3.7 4.71,-6.4 1.57,-2.7 3.29,-6.16 5.15,-10.37 l -25.9,-63.41 z"
       id="path17" />
    <path
       class="cls-1"
       d="m 2003.39,1050.12 c 0,-5.98 0.93,-11.38 2.79,-16.18 1.86,-4.8 4.43,-8.9 7.71,-12.29 3.28,-3.38 7.2,-6.03 11.75,-7.94 4.55,-1.91 9.52,-2.87 14.9,-2.87 10.47,0 18.74,3.12 24.81,9.34 6.07,6.23 9.1,15.13 9.1,26.7 0,5.89 -0.91,11.26 -2.72,16.11 -1.81,4.85 -4.36,9 -7.63,12.43 -3.28,3.43 -7.19,6.08 -11.74,7.94 -4.55,1.86 -9.57,2.8 -15.05,2.8 -10.47,0 -18.74,-3.11 -24.81,-9.34 -6.07,-6.23 -9.1,-15.13 -9.1,-26.7 z m 13.54,-1.99 c 0,4.6 0.57,8.66 1.7,12.18 1.13,3.52 2.71,6.46 4.73,8.8 2.02,2.35 4.38,4.11 7.09,5.28 2.7,1.17 5.63,1.76 8.78,1.76 6.3,0 11.49,-2.27 15.58,-6.82 4.08,-4.55 6.13,-11.42 6.13,-20.62 0,-4.6 -0.57,-8.66 -1.7,-12.18 -1.13,-3.52 -2.68,-6.46 -4.65,-8.8 -1.97,-2.35 -4.33,-4.13 -7.09,-5.36 -2.76,-1.22 -5.71,-1.83 -8.85,-1.83 -6.3,0 -11.49,2.28 -15.57,6.82 -4.09,4.55 -6.13,11.47 -6.13,20.76 z"
       id="path18" />
    <path
       class="cls-1"
       d="m 2101.67,1021.57 h -7.95 c -3.14,0 -4.71,-1.37 -4.71,-4.12 0,-1.57 0.49,-2.82 1.47,-3.75 0.98,-0.93 2.45,-1.4 4.41,-1.4 h 6.77 v -5 c 0,-9.9 2.43,-17.38 7.28,-22.44 4.85,-5.05 11.6,-7.58 20.23,-7.58 2.84,0 5.15,0.27 6.92,0.81 1.76,0.54 2.99,1.15 3.68,1.84 0.39,0.29 0.66,0.61 0.81,0.96 0.15,0.34 0.29,0.76 0.44,1.25 0.15,0.49 0.24,1.2 0.29,2.13 0.05,0.93 0.07,2.04 0.07,3.31 v 3.75 c 0,0.83 -0.05,2.04 -0.15,3.6 -0.1,1.47 -0.49,2.53 -1.18,3.16 -0.69,0.64 -1.57,0.96 -2.65,0.96 -1.18,0 -2.11,-0.32 -2.79,-0.96 -0.69,-0.64 -1.23,-1.74 -1.62,-3.31 l -1.91,-7.65 c -0.39,0 -0.74,-0.05 -1.03,-0.15 -0.39,-0.1 -0.86,-0.2 -1.4,-0.29 -0.54,-0.1 -1.15,-0.15 -1.84,-0.15 -3.92,0 -6.89,1.2 -8.9,3.6 -2.01,2.4 -3.02,6.65 -3.02,12.73 v 9.42 h 12.95 c 3.14,0 4.71,1.32 4.71,3.97 0,1.67 -0.49,2.97 -1.47,3.9 -0.98,0.93 -2.45,1.4 -4.41,1.4 h -11.77 v 52.97 l 9.12,2.06 c 1.57,0.39 2.62,0.88 3.16,1.47 0.54,0.59 0.81,1.42 0.81,2.5 0,1.28 -0.42,2.28 -1.25,3.02 -0.83,0.74 -2.04,1.1 -3.6,1.1 h -28.98 c -1.57,0 -2.75,-0.37 -3.53,-1.1 -0.78,-0.73 -1.18,-1.74 -1.18,-3.02 0,-1.08 0.24,-1.91 0.74,-2.5 0.49,-0.59 1.57,-1.08 3.24,-1.47 l 8.24,-2.06 v -52.97 z"
       id="path19" />
    <path
       class="cls-1"
       d="m 2221.29,1043.2 -28.84,-47.37 -4.71,-1.45 c -2.06,-0.68 -3.44,-1.4 -4.12,-2.17 -0.69,-0.77 -1.03,-1.79 -1.03,-3.05 0,-0.97 0.37,-1.79 1.1,-2.46 0.74,-0.68 1.84,-1.02 3.31,-1.02 h 27.51 c 1.47,0 2.58,0.34 3.31,1.02 0.74,0.68 1.1,1.5 1.1,2.46 0,1.26 -0.34,2.27 -1.03,3.05 -0.69,0.77 -2.11,1.5 -4.27,2.17 l -5.44,1.45 21.63,36.78 h 0.29 l 20.89,-36.78 -5.3,-1.45 c -2.06,-0.68 -3.43,-1.4 -4.12,-2.17 -0.69,-0.77 -1.03,-1.79 -1.03,-3.05 0,-0.97 0.37,-1.79 1.1,-2.46 0.73,-0.68 1.79,-1.02 3.16,-1.02 h 24.42 c 1.37,0 2.43,0.34 3.16,1.02 0.74,0.68 1.1,1.5 1.1,2.46 0,1.26 -0.34,2.27 -1.03,3.05 -0.69,0.77 -2.06,1.5 -4.12,2.17 l -4.71,1.45 -28.84,47.37 v 31.34 l 9.27,2.03 c 1.57,0.39 2.62,0.9 3.16,1.52 0.54,0.63 0.81,1.48 0.81,2.54 0,1.26 -0.39,2.25 -1.18,2.97 -0.79,0.73 -1.96,1.09 -3.53,1.09 h -30.6 c -1.57,0 -2.75,-0.36 -3.53,-1.09 -0.79,-0.72 -1.18,-1.72 -1.18,-2.97 0,-1.06 0.27,-1.91 0.81,-2.54 0.54,-0.63 1.59,-1.14 3.16,-1.52 l 9.27,-2.03 v -31.34 z"
       id="path20" />
    <path
       class="cls-1"
       d="m 2271.16,1050.12 c 0,-5.98 0.93,-11.38 2.79,-16.18 1.86,-4.8 4.43,-8.9 7.71,-12.29 3.28,-3.38 7.2,-6.03 11.75,-7.94 4.55,-1.91 9.52,-2.87 14.9,-2.87 10.47,0 18.74,3.12 24.81,9.34 6.07,6.23 9.1,15.13 9.1,26.7 0,5.89 -0.91,11.26 -2.72,16.11 -1.81,4.85 -4.36,9 -7.63,12.43 -3.28,3.43 -7.19,6.08 -11.74,7.94 -4.55,1.86 -9.57,2.8 -15.05,2.8 -10.47,0 -18.74,-3.11 -24.81,-9.34 -6.07,-6.23 -9.1,-15.13 -9.1,-26.7 z m 13.54,-1.99 c 0,4.6 0.57,8.66 1.7,12.18 1.13,3.52 2.71,6.46 4.73,8.8 2.02,2.35 4.38,4.11 7.09,5.28 2.7,1.17 5.63,1.76 8.78,1.76 6.3,0 11.49,-2.27 15.58,-6.82 4.08,-4.55 6.13,-11.42 6.13,-20.62 0,-4.6 -0.57,-8.66 -1.7,-12.18 -1.13,-3.52 -2.68,-6.46 -4.65,-8.8 -1.97,-2.35 -4.33,-4.13 -7.09,-5.36 -2.76,-1.22 -5.71,-1.83 -8.85,-1.83 -6.3,0 -11.49,2.28 -15.57,6.82 -4.09,4.55 -6.13,11.47 -6.13,20.76 z"
       id="path21" />
    <path
       class="cls-1"
       d="m 2369.44,1022.6 -8.68,-1.32 c -1.57,-0.29 -2.62,-0.74 -3.16,-1.32 -0.54,-0.59 -0.81,-1.42 -0.81,-2.5 0,-1.18 0.29,-2.08 0.88,-2.72 0.59,-0.64 1.72,-1.2 3.38,-1.69 1.67,-0.39 3.63,-0.74 5.89,-1.03 2.25,-0.29 4.41,-0.44 6.47,-0.44 3.14,0 5.27,0.59 6.4,1.77 1.13,1.18 1.69,3.29 1.69,6.33 v 4.41 l 0.29,0.15 c 0.98,-2.06 2.16,-3.92 3.53,-5.59 1.37,-1.67 2.89,-3.09 4.56,-4.27 1.67,-1.18 3.46,-2.11 5.37,-2.8 1.91,-0.69 3.9,-1.03 5.96,-1.03 2.35,0 4.07,0.57 5.15,1.69 1.08,1.13 1.62,2.63 1.62,4.49 0,1.37 -0.17,2.63 -0.51,3.75 -0.34,1.13 -0.81,2.06 -1.4,2.8 -0.59,0.74 -1.2,1.3 -1.84,1.69 -0.64,0.39 -1.3,0.59 -1.99,0.59 -0.59,0 -1.1,-0.07 -1.54,-0.22 -0.44,-0.15 -0.88,-0.29 -1.33,-0.44 -0.44,-0.15 -0.91,-0.32 -1.4,-0.51 -0.49,-0.2 -1.08,-0.29 -1.77,-0.29 -2.35,0 -4.69,0.66 -6.99,1.99 -2.31,1.32 -4.49,3.51 -6.55,6.55 v 41.93 l 9.12,2.06 c 1.57,0.39 2.62,0.88 3.16,1.47 0.54,0.59 0.81,1.42 0.81,2.5 0,1.28 -0.42,2.28 -1.25,3.02 -0.83,0.74 -2.04,1.1 -3.6,1.1 h -28.98 c -1.57,0 -2.75,-0.37 -3.53,-1.1 -0.78,-0.73 -1.18,-1.74 -1.18,-3.02 0,-1.08 0.24,-1.91 0.74,-2.5 0.49,-0.59 1.57,-1.08 3.24,-1.47 l 8.24,-2.06 v -51.94 z"
       id="path22" />
    <path
       class="cls-1"
       d="m 2426.23,989.06 -7.8,-1.32 c -1.47,-0.29 -2.5,-0.76 -3.09,-1.4 -0.59,-0.64 -0.88,-1.49 -0.88,-2.57 0,-1.08 0.29,-1.94 0.88,-2.57 0.59,-0.64 1.72,-1.2 3.38,-1.69 1.67,-0.39 3.63,-0.74 5.89,-1.03 2.25,-0.29 4.31,-0.44 6.18,-0.44 3.33,0 5.61,0.61 6.84,1.84 1.23,1.23 1.84,3.46 1.84,6.69 v 57.46 l 24.28,-22.14 -3.53,-1.18 c -1.47,-0.49 -2.58,-1.1 -3.31,-1.84 -0.74,-0.74 -1.1,-1.79 -1.1,-3.16 0,-0.98 0.34,-1.79 1.03,-2.43 0.68,-0.64 1.77,-0.96 3.24,-0.96 h 24.57 c 1.37,0 2.43,0.32 3.16,0.96 0.74,0.64 1.1,1.45 1.1,2.43 0,1.28 -0.39,2.33 -1.18,3.16 -0.79,0.84 -2.11,1.55 -3.97,2.13 l -5.59,1.62 -24.86,21.55 10.3,12.53 c 2.45,3.05 4.78,5.68 6.99,7.89 2.21,2.21 4.27,4.13 6.18,5.75 1.91,1.62 3.75,2.92 5.52,3.91 1.77,0.98 3.48,1.82 5.15,2.51 1.18,0.49 1.96,0.98 2.35,1.47 0.39,0.49 0.59,1.18 0.59,2.06 0,1.37 -0.76,2.6 -2.28,3.68 -1.52,1.08 -3.8,1.62 -6.84,1.62 -1.96,0 -3.92,-0.3 -5.89,-0.88 -1.96,-0.59 -3.92,-1.52 -5.89,-2.8 -1.97,-1.28 -3.97,-2.97 -6.03,-5.09 -2.06,-2.11 -4.22,-4.64 -6.47,-7.59 l -17.51,-22.55 v 27.88 l 4.86,1.47 c 1.67,0.69 2.77,1.35 3.31,1.99 0.54,0.64 0.81,1.5 0.81,2.57 0,1.28 -0.47,2.28 -1.4,3.02 -0.93,0.74 -2.13,1.1 -3.6,1.1 h -23.84 c -1.47,0 -2.62,-0.37 -3.46,-1.1 -0.84,-0.74 -1.25,-1.74 -1.25,-3.02 0,-1.08 0.27,-1.94 0.81,-2.57 0.54,-0.64 1.54,-1.15 3.02,-1.55 l 7.5,-1.91 v -85.48 z"
       id="path23" />
  </g>
  <g
     id="g37"
     transform="translate(-246.05498,-847.345)">
    <path
       class="cls-1"
       d="m 1298.67,1203.95 c -12.86,0 -24.38,6.43 -24.38,18.76 0,14.47 17.68,18.49 32.15,23.58 26.53,9.11 58.41,21.43 58.41,60.82 0,39.39 -38.31,58.14 -71,58.14 -28.94,0 -51.44,-10.99 -71.81,-31.35 l 25.45,-24.92 c 15.27,14.74 27.06,23.58 46.62,23.58 15.01,0 29.74,-7.23 29.74,-23.85 0,-16.62 -17.15,-22.24 -36.17,-29.21 -24.38,-9.11 -51.71,-19.83 -51.71,-55.73 0,-35.9 30.28,-52.52 61.36,-52.52 24.11,0 43.14,7.77 62.16,22.24 l -21.97,27.33 c -10.45,-8.84 -24.38,-16.88 -38.85,-16.88 z"
       id="path24" />
    <path
       class="cls-1"
       d="m 1440.13,1252.72 v 54.66 c 0,4.29 0,8.04 0.54,12.06 1.07,8.31 4.29,13.4 12.32,13.4 5.9,0 10.45,-1.61 15.27,-4.02 l 11.79,28.13 c -9.11,5.36 -22.51,8.31 -33.49,8.31 -21.97,0 -36.71,-12.06 -41.8,-30.28 -2.14,-6.97 -2.68,-15.27 -2.68,-23.58 v -58.68 h -16.88 v -31.62 h 16.88 l 5.89,-31.08 h 32.15 v 31.08 h 35.9 v 31.62 h -35.9 z"
       id="path25" />
    <path
       class="cls-1"
       d="m 1604.1,1362.03 -2.95,-19.29 c -11.25,15.81 -28.13,22.51 -43.67,22.51 -15.54,0 -28.67,-7.23 -37.51,-18.49 -10.99,-14.2 -12.59,-32.42 -12.59,-52.52 v -73.15 h 38.05 v 71.27 c 0,10.45 0.27,22.24 4.29,30.28 3.48,6.97 10.45,9.91 18.75,9.91 11.25,0 23.58,-6.43 30.55,-17.95 v -93.51 h 38.05 v 140.94 h -32.96 z"
       id="path26" />
    <path
       class="cls-1"
       d="m 1783.34,1362.03 -3.22,-17.42 c -9.91,15.54 -28.94,20.63 -43.41,20.63 -37.24,0 -65.64,-33.22 -65.64,-74.22 0,-41 27.87,-73.15 66.18,-73.15 13.4,0 30.28,4.82 40.99,16.88 v -73.68 h 38.05 v 200.95 h -32.96 z m -5.09,-96.19 c -9.64,-11.25 -20.9,-15.27 -32.69,-15.27 -24.38,0 -35.63,21.7 -35.63,41.53 0,19.83 13.4,40.46 35.1,40.46 12.06,0 24.92,-4.55 33.22,-18.49 z"
       id="path27" />
    <path
       class="cls-1"
       d="m 1888.9,1300.94 c 2.68,19.29 15.27,33.76 35.37,33.76 18.22,0 27.6,-7.5 36.71,-20.9 l 24.92,16.88 c -16.08,23.31 -34.03,34.56 -64.3,34.56 -42.6,0 -71.27,-29.74 -71.27,-72.07 0,-42.33 31.08,-75.29 71.54,-75.29 40.46,0 68.06,27.6 68.06,65.11 0,5.63 -0.8,12.32 -1.88,17.95 h -99.14 z m 62.16,-25.99 c -0.8,-16.88 -12.59,-27.33 -28.13,-27.33 -18.22,0 -28.13,11.52 -32.15,27.33 h 60.29 z"
       id="path28" />
    <path
       class="cls-1"
       d="m 2057.15,1221.1 2.95,19.29 c 11.25,-15.81 28.13,-22.51 43.67,-22.51 15.54,0 28.67,7.23 37.51,18.49 10.99,14.2 12.59,32.42 12.59,52.52 v 73.15 h -38.05 v -71.27 c 0,-10.45 -0.27,-22.24 -4.29,-30.28 -3.48,-6.97 -10.45,-9.91 -18.75,-9.91 -11.25,0 -23.58,6.43 -30.55,17.95 v 93.51 h -38.05 V 1221.1 h 32.96 z"
       id="path29" />
    <path
       class="cls-1"
       d="m 2236.12,1252.72 v 54.66 c 0,4.29 0,8.04 0.54,12.06 1.07,8.31 4.29,13.4 12.33,13.4 5.89,0 10.45,-1.61 15.27,-4.02 l 11.79,28.13 c -9.11,5.36 -22.51,8.31 -33.49,8.31 -21.97,0 -36.71,-12.06 -41.8,-30.28 -2.14,-6.97 -2.68,-15.27 -2.68,-23.58 v -58.68 h -16.88 v -31.62 h 16.88 l 5.89,-31.08 h 32.15 v 31.08 h 35.9 v 31.62 z"
       id="path30" />
    <path
       class="cls-1"
       d="m 2381.07,1259.41 c -7.23,-6.43 -17.15,-11.79 -27.87,-11.79 -7.23,0 -13.66,4.02 -13.66,10.72 0,8.84 10.45,13.4 22.24,18.22 18.22,7.5 41.26,16.61 41.26,43.41 0,31.08 -26.79,45.28 -54.12,45.28 -21.97,0 -41.26,-8.57 -56.8,-24.12 l 21.7,-22.51 c 10.72,10.45 19.56,16.61 33.22,16.61 7.77,0 17.95,-3.75 17.95,-12.32 0,-9.91 -12.86,-14.2 -26.79,-20.36 -16.88,-7.23 -35.37,-16.88 -35.37,-41.53 0,-28.67 24.65,-43.14 50.37,-43.14 18.76,0 35.64,6.16 48.77,18.49 z"
       id="path31" />
    <path
       class="cls-1"
       d="m 2449.92,1174.48 h 40.46 l -19.56,73.95 h -36.17 z"
       id="path32" />
    <path
       class="cls-1"
       d="m 1383.61,1534.32 c 0,58.95 -22.51,91.63 -76.09,91.63 -53.58,0 -75.02,-32.69 -75.02,-91.63 v -99.14 h 38.31 v 104.23 c 0,35.9 14.47,53.05 37.24,53.05 22.77,0 37.24,-17.15 37.24,-53.05 v -104.23 h 38.31 v 99.14 z"
       id="path33" />
    <path
       class="cls-1"
       d="m 1462.1,1481.81 2.95,19.29 c 11.25,-15.81 28.13,-22.51 43.68,-22.51 15.55,0 28.67,7.23 37.51,18.49 10.99,14.2 12.59,32.42 12.59,52.52 v 73.15 h -38.05 v -71.27 c 0,-10.45 -0.27,-22.24 -4.29,-30.28 -3.48,-6.97 -10.45,-9.91 -18.75,-9.91 -11.25,0 -23.58,6.43 -30.55,17.95 v 93.51 h -38.05 v -140.93 h 32.96 z"
       id="path34" />
    <path
       class="cls-1"
       d="m 1601.42,1462.25 v -32.42 h 38.05 v 32.42 z m 0,160.49 v -140.93 h 38.05 v 140.93 z"
       id="path35" />
    <path
       class="cls-1"
       d="m 1821.12,1552.27 c 0,41.53 -30.81,73.68 -73.68,73.68 -42.87,0 -73.95,-32.15 -73.95,-73.68 0,-41.53 30.81,-73.68 73.95,-73.68 43.14,0 73.68,32.15 73.68,73.68 z m -73.68,-40.99 c -20.9,0 -35.1,17.95 -35.1,40.99 0,23.04 14.2,40.99 35.1,40.99 20.9,0 34.83,-17.95 34.83,-40.99 0,-23.04 -13.93,-40.99 -34.83,-40.99 z"
       id="path36" />
    <path
       class="cls-1"
       d="m 1888.09,1481.81 2.95,19.29 c 11.25,-15.81 28.13,-22.51 43.67,-22.51 15.54,0 28.67,7.23 37.51,18.49 10.99,14.2 12.59,32.42 12.59,52.52 v 73.15 h -38.05 v -71.27 c 0,-10.45 -0.27,-22.24 -4.29,-30.28 -3.48,-6.97 -10.45,-9.91 -18.75,-9.91 -11.25,0 -23.58,6.43 -30.55,17.95 v 93.51 h -38.05 v -140.93 h 32.96 z"
       id="path37" />
  </g>
</svg>
