<?xml version="1.0" encoding="UTF-8" standalone="no"?>
<svg
   id="Layer_1"
   data-name="Layer 1"
   version="1.1"
   viewBox="0 0 2342.5501 929.94003"
   sodipodi:docname="York_SU_Full_logo_Black.svg"
   width="2342.55"
   height="929.94"
   xmlns:inkscape="http://www.inkscape.org/namespaces/inkscape"
   xmlns:sodipodi="http://sodipodi.sourceforge.net/DTD/sodipodi-0.dtd"
   xmlns="http://www.w3.org/2000/svg"
   xmlns:svg="http://www.w3.org/2000/svg">
  <sodipodi:namedview
     id="namedview36"
     pagecolor="#ffffff"
     bordercolor="#000000"
     borderopacity="0.25"
     inkscape:showpageshadow="2"
     inkscape:pageopacity="0.0"
     inkscape:pagecheckerboard="0"
     inkscape:deskcolor="#d1d1d1">
    <inkscape:page
       x="0"
       y="0"
       width="2342.55"
       height="929.94"
       id="page2"
       margin="0"
       bleed="0" />
  </sodipodi:namedview>
  <defs
     id="defs1">
    <style
       id="style1">
      .cls-1 {
        fill: #2b2523;
      }

      .cls-1, .cls-2 {
        stroke-width: 0px;
      }

      .cls-2 {
        fill: #2a2522;
      }
    </style>
  </defs>
  <path
     class="cls-2"
     d="m 486.43002,829.94012 c 189.71,0 343.49,-153.79 343.49,-343.49 h -343.49 z"
     id="path1" />
  <polygon
     class="cls-2"
     points="689.53,1332.39 622.57,1332.39 346.05,1332.39 346.05,1399.37 531.08,1399.37 369.99,1492.37 403.48,1550.37 564.56,1457.37 471.56,1618.45 529.57,1651.94 622.57,1490.86 622.57,1675.89 689.54,1675.89 689.54,1332.39 "
     id="polygon1"
     transform="translate(-246.04998,-845.94988)" />
  <path
     class="cls-2"
     d="m 100.00002,100.01012 v 343.49 h 343.49 v -343.49 z m 293.57,258.67 -35.71,35.71 -86.97,-86.97 -86.97,86.97 -35.71,-35.71 86.97,-86.97 -86.97,-86.97 35.71,-35.71 86.97,86.97 86.97,-86.97 35.71,35.71 -86.97,86.97 z"
     id="path2" />
  <g
     id="g6"
     transform="translate(-246.04998,-845.94988)">
    <path
       class="cls-1"
       d="m 793.48,1260.58 0.08,28.31 c 51.23,-0.14 92.64,-41.79 92.5,-93.02 h -0.01 c 0,-0.14 0.01,-0.29 0.01,-0.44 -0.11,-38.14 -31.11,-68.97 -69.25,-68.87 -38.14,0.1 -68.97,31.11 -68.87,69.25 0.08,29.82 19.05,55.17 45.55,64.76 z"
       id="path3" />
    <path
       class="cls-1"
       d="m 967.98,1260.58 0.08,28.31 c 51.23,-0.14 92.64,-41.79 92.5,-93.02 h -0.01 c 0,-0.14 0.01,-0.29 0.01,-0.44 -0.11,-38.14 -31.11,-68.97 -69.25,-68.87 -38.14,0.11 -68.97,31.11 -68.87,69.25 0.08,29.82 19.05,55.17 45.55,64.76 z"
       id="path4" />
    <path
       class="cls-1"
       d="m 793.46,1079.97 0.08,28.31 c 51.23,-0.14 92.64,-41.79 92.5,-93.02 h -0.01 c 0,-0.14 0.01,-0.29 0.01,-0.44 -0.11,-38.14 -31.11,-68.97 -69.25,-68.87 -38.14,0.1 -68.97,31.11 -68.87,69.25 0.08,29.82 19.05,55.17 45.55,64.76 z"
       id="path5" />
    <path
       class="cls-1"
       d="m 967.97,1079.97 0.08,28.31 c 51.23,-0.14 92.64,-41.79 92.5,-93.02 h -0.01 c 0,-0.14 0.01,-0.29 0.01,-0.44 -0.11,-38.14 -31.11,-68.97 -69.25,-68.87 -38.14,0.11 -68.97,31.11 -68.87,69.25 0.08,29.82 19.05,55.17 45.55,64.76 z"
       id="path6" />
  </g>
  <g
     id="g22"
     transform="translate(-246.04998,-845.94988)">
    <path
       class="cls-2"
       d="m 1233.26,994.69 -6.32,-1.59 c -1.96,-0.58 -3.31,-1.25 -4.04,-2.03 -0.74,-0.77 -1.1,-1.79 -1.1,-3.04 0,-0.97 0.37,-1.79 1.1,-2.46 0.74,-0.68 1.84,-1.01 3.31,-1.01 h 28.37 c 1.37,0 2.43,0.34 3.16,1.01 0.74,0.68 1.1,1.5 1.1,2.46 0,1.26 -0.32,2.27 -0.96,3.04 -0.64,0.77 -1.84,1.4 -3.6,1.88 l -7.5,1.74 v 48.75 c 0,10.8 2.28,18.75 6.84,23.86 4.56,5.11 10.85,7.66 18.89,7.66 8.04,0 14.06,-2.35 18.37,-7.07 4.31,-4.71 6.47,-12.22 6.47,-22.54 v -50.66 l -7.5,-1.74 c -1.76,-0.48 -2.97,-1.11 -3.6,-1.88 -0.64,-0.77 -0.96,-1.79 -0.96,-3.04 0,-0.97 0.37,-1.79 1.1,-2.46 0.73,-0.67 1.79,-1.01 3.16,-1.01 h 26.75 c 1.37,0 2.43,0.34 3.16,1.01 0.74,0.68 1.1,1.5 1.1,2.46 0,1.26 -0.34,2.27 -1.03,3.04 -0.69,0.77 -2.01,1.45 -3.97,2.03 l -6.32,1.59 v 48.74 c 0,13.94 -3.31,24.34 -9.92,31.21 -6.62,6.87 -16.15,10.31 -28.59,10.31 -12.44,0 -22.05,-3.19 -28.22,-9.57 -6.17,-6.38 -9.26,-16.39 -9.26,-30.04 v -50.65 z"
       id="path7" />
    <path
       class="cls-2"
       d="m 1343.36,1021.45 -8.67,-1.32 c -1.57,-0.29 -2.62,-0.74 -3.16,-1.32 -0.54,-0.59 -0.81,-1.42 -0.81,-2.5 0,-1.18 0.29,-2.08 0.88,-2.72 0.59,-0.64 1.71,-1.2 3.38,-1.69 1.66,-0.39 3.62,-0.74 5.88,-1.03 2.25,-0.29 4.41,-0.44 6.47,-0.44 3.13,0 5.27,0.59 6.39,1.76 1.13,1.18 1.69,3.28 1.69,6.32 v 2.65 l 0.29,0.15 c 1.37,-2.15 3.14,-4.07 5.29,-5.73 1.76,-1.37 4.09,-2.67 6.98,-3.9 2.89,-1.22 6.44,-1.84 10.66,-1.84 8.62,0 15.21,2.3 19.77,6.91 4.56,4.61 6.84,11.56 6.84,20.87 v 35.72 l 7.35,1.91 c 1.57,0.39 2.62,0.91 3.16,1.54 0.54,0.64 0.81,1.5 0.81,2.57 0,1.28 -0.39,2.28 -1.18,3.01 -0.78,0.74 -1.96,1.1 -3.53,1.1 h -26.31 c -1.47,0 -2.62,-0.37 -3.46,-1.1 -0.83,-0.74 -1.25,-1.74 -1.25,-3.01 0,-1.08 0.27,-1.93 0.81,-2.57 0.54,-0.64 1.59,-1.15 3.16,-1.54 l 7.35,-1.91 v -32.19 c 0,-7.55 -1.54,-12.98 -4.63,-16.32 -3.09,-3.33 -7.47,-5 -13.16,-5 -2.94,0 -5.49,0.47 -7.64,1.4 -2.16,0.93 -4.02,1.99 -5.59,3.16 -1.76,1.37 -3.28,2.89 -4.56,4.56 v 44.39 l 7.35,1.91 c 1.57,0.39 2.6,0.91 3.09,1.54 0.49,0.64 0.74,1.5 0.74,2.57 0,1.28 -0.39,2.28 -1.18,3.01 -0.79,0.74 -1.96,1.1 -3.53,1.1 h -27.2 c -1.57,0 -2.74,-0.37 -3.53,-1.1 -0.79,-0.74 -1.18,-1.74 -1.18,-3.01 0,-1.08 0.24,-1.91 0.74,-2.5 0.49,-0.59 1.57,-1.08 3.23,-1.47 l 8.23,-2.06 v -51.89 z"
       id="path8" />
    <path
       class="cls-2"
       d="m 1439.64,1021.45 -8.67,-1.32 c -1.57,-0.29 -2.62,-0.74 -3.16,-1.32 -0.54,-0.59 -0.81,-1.42 -0.81,-2.5 0,-1.18 0.29,-2.08 0.88,-2.72 0.59,-0.64 1.71,-1.2 3.38,-1.69 1.66,-0.39 3.65,-0.74 5.95,-1.03 2.3,-0.29 4.63,-0.44 6.98,-0.44 3.43,0 5.73,0.61 6.91,1.84 1.18,1.23 1.76,3.45 1.76,6.69 v 54.39 l 7.5,1.91 c 1.47,0.39 2.47,0.91 3.01,1.54 0.54,0.64 0.81,1.45 0.81,2.43 0,1.28 -0.42,2.3 -1.25,3.09 -0.83,0.79 -2.03,1.18 -3.6,1.18 h -27.2 c -1.57,0 -2.74,-0.37 -3.53,-1.1 -0.78,-0.74 -1.18,-1.74 -1.18,-3.01 0,-1.08 0.24,-1.91 0.74,-2.5 0.49,-0.59 1.57,-1.08 3.23,-1.47 l 8.23,-2.06 v -51.89 z m -2.94,-32.2 c 0,-2.65 0.88,-4.87 2.65,-6.69 1.76,-1.81 3.97,-2.72 6.61,-2.72 2.64,0 4.83,0.86 6.54,2.57 1.71,1.72 2.57,3.9 2.57,6.54 0,2.64 -0.88,4.88 -2.65,6.69 -1.76,1.81 -3.97,2.72 -6.62,2.72 -2.65,0 -4.83,-0.86 -6.54,-2.57 -1.72,-1.71 -2.57,-3.9 -2.57,-6.54 z"
       id="path9" />
    <path
       class="cls-2"
       d="m 1478.67,1021.3 -4.26,-1.47 c -1.86,-0.59 -3.11,-1.3 -3.75,-2.13 -0.64,-0.83 -0.96,-1.89 -0.96,-3.16 0,-0.98 0.37,-1.79 1.1,-2.43 0.73,-0.64 1.79,-0.96 3.16,-0.96 h 24.11 c 1.47,0 2.55,0.32 3.23,0.96 0.68,0.64 1.03,1.45 1.03,2.43 0,1.27 -0.32,2.26 -0.96,2.94 -0.64,0.69 -1.89,1.37 -3.75,2.06 l -5.29,1.62 14.7,37.63 c 0.69,1.76 1.27,3.36 1.76,4.78 0.49,1.42 0.93,2.72 1.32,3.9 0.39,1.18 0.78,2.35 1.18,3.53 h 0.29 c 0.39,-1.18 0.78,-2.35 1.18,-3.53 0.4,-1.18 0.83,-2.5 1.32,-3.97 0.49,-1.47 1.08,-3.04 1.76,-4.7 l 14.85,-37.63 -5.29,-1.62 c -1.86,-0.68 -3.14,-1.37 -3.82,-2.06 -0.69,-0.68 -1.03,-1.67 -1.03,-2.94 0,-0.98 0.37,-1.79 1.1,-2.43 0.74,-0.64 1.79,-0.96 3.16,-0.96 h 21.76 c 1.47,0 2.57,0.32 3.31,0.96 0.73,0.64 1.1,1.45 1.1,2.43 0,1.27 -0.32,2.33 -0.96,3.16 -0.64,0.83 -1.89,1.54 -3.75,2.13 l -4.26,1.47 -22.49,54.54 c -0.69,1.67 -1.35,3.04 -1.98,4.12 -0.64,1.08 -1.3,1.91 -1.99,2.5 -0.69,0.59 -1.47,1.01 -2.35,1.25 -0.88,0.24 -1.91,0.37 -3.09,0.37 -1.08,0 -2.04,-0.12 -2.87,-0.37 -0.83,-0.24 -1.59,-0.66 -2.28,-1.25 -0.69,-0.59 -1.35,-1.42 -1.99,-2.5 -0.64,-1.08 -1.3,-2.45 -1.98,-4.12 l -22.34,-54.54 z"
       id="path10" />
    <path
       class="cls-2"
       d="m 1572.53,1048.2 c 0.29,8.82 2.61,15.49 6.96,19.99 4.35,4.51 10.28,6.76 17.8,6.76 2.64,0 4.83,-0.15 6.59,-0.44 1.76,-0.29 3.27,-0.64 4.54,-1.03 1.27,-0.39 2.34,-0.74 3.22,-1.03 0.88,-0.29 1.66,-0.44 2.34,-0.44 1.17,0 2.05,0.32 2.64,0.96 0.59,0.64 0.88,1.5 0.88,2.57 0,0.69 -0.13,1.3 -0.37,1.84 -0.25,0.54 -0.66,1.1 -1.25,1.69 -1.28,1.28 -3.85,2.57 -7.72,3.9 -3.87,1.32 -8.8,1.98 -14.77,1.98 -5.29,0 -10.07,-0.81 -14.33,-2.43 -4.26,-1.62 -7.87,-3.94 -10.8,-6.98 -2.94,-3.04 -5.22,-6.78 -6.84,-11.24 -1.62,-4.46 -2.43,-9.58 -2.43,-15.36 0,-6.08 0.88,-11.54 2.65,-16.39 1.76,-4.85 4.19,-8.94 7.28,-12.27 3.09,-3.33 6.71,-5.93 10.88,-7.79 4.16,-1.86 8.65,-2.79 13.45,-2.79 8.33,0 14.94,2.57 19.84,7.72 4.9,5.15 7.35,12.52 7.35,22.12 0,2.94 -0.69,5.12 -2.05,6.54 -1.37,1.42 -3.37,2.13 -6.01,2.13 h -39.86 z m 34.83,-8.23 c -0.19,-7.01 -1.8,-12.21 -4.81,-15.62 -3.01,-3.4 -6.75,-5.11 -11.22,-5.11 -5.05,0 -9.21,1.87 -12.46,5.62 -3.26,3.75 -5.22,8.78 -5.9,15.11 h 34.4 z"
       id="path11" />
    <path
       class="cls-2"
       d="m 1648.08,1021.45 -8.67,-1.32 c -1.57,-0.29 -2.62,-0.74 -3.16,-1.32 -0.54,-0.59 -0.81,-1.42 -0.81,-2.5 0,-1.18 0.29,-2.08 0.88,-2.72 0.59,-0.64 1.71,-1.2 3.38,-1.69 1.66,-0.39 3.63,-0.74 5.88,-1.03 2.25,-0.29 4.41,-0.44 6.47,-0.44 3.13,0 5.27,0.59 6.39,1.76 1.13,1.18 1.69,3.28 1.69,6.32 v 4.41 l 0.29,0.15 c 0.98,-2.06 2.16,-3.92 3.53,-5.59 1.37,-1.67 2.89,-3.09 4.56,-4.26 1.67,-1.18 3.46,-2.11 5.37,-2.79 1.91,-0.68 3.9,-1.03 5.95,-1.03 2.35,0 4.06,0.57 5.14,1.69 1.08,1.13 1.62,2.62 1.62,4.48 0,1.37 -0.17,2.62 -0.51,3.75 -0.34,1.13 -0.81,2.06 -1.4,2.79 -0.59,0.74 -1.2,1.3 -1.84,1.69 -0.64,0.39 -1.3,0.59 -1.99,0.59 -0.59,0 -1.1,-0.07 -1.54,-0.22 -0.44,-0.15 -0.88,-0.29 -1.32,-0.44 -0.44,-0.15 -0.91,-0.32 -1.4,-0.51 -0.49,-0.2 -1.08,-0.29 -1.76,-0.29 -2.35,0 -4.68,0.66 -6.98,1.98 -2.3,1.32 -4.48,3.5 -6.54,6.54 v 41.89 l 9.11,2.06 c 1.57,0.39 2.62,0.88 3.16,1.47 0.54,0.59 0.81,1.42 0.81,2.5 0,1.28 -0.42,2.28 -1.25,3.01 -0.83,0.74 -2.04,1.1 -3.6,1.1 h -28.96 c -1.57,0 -2.74,-0.37 -3.53,-1.1 -0.78,-0.74 -1.18,-1.74 -1.18,-3.01 0,-1.08 0.24,-1.91 0.74,-2.5 0.49,-0.59 1.57,-1.08 3.23,-1.47 l 8.23,-2.06 v -51.89 z"
       id="path12" />
    <path
       class="cls-2"
       d="m 1711.44,1073.34 c 0.88,0.49 1.96,0.88 3.23,1.18 0.98,0.39 2.3,0.71 3.97,0.96 1.66,0.25 3.62,0.37 5.88,0.37 5.29,0 9.06,-0.98 11.32,-2.94 2.25,-1.96 3.38,-4.56 3.38,-7.79 0,-2.74 -0.98,-4.95 -2.94,-6.62 -1.96,-1.66 -4.36,-3.11 -7.2,-4.34 -2.84,-1.22 -5.95,-2.37 -9.34,-3.45 -3.38,-1.08 -6.49,-2.43 -9.33,-4.04 -2.84,-1.62 -5.24,-3.72 -7.2,-6.32 -1.96,-2.6 -2.94,-5.95 -2.94,-10.07 0,-2.74 0.59,-5.37 1.76,-7.86 1.18,-2.5 2.99,-4.68 5.44,-6.54 2.45,-1.86 5.49,-3.36 9.11,-4.48 3.62,-1.13 7.89,-1.69 12.79,-1.69 4.9,0 8.55,0.39 11.54,1.18 2.99,0.79 4.97,1.67 5.95,2.65 0.78,0.69 1.27,1.52 1.47,2.5 0.19,0.98 0.29,2.65 0.29,5 v 3.97 c 0,0.79 -0.05,1.96 -0.15,3.53 -0.1,1.47 -0.49,2.52 -1.18,3.16 -0.69,0.64 -1.57,0.96 -2.65,0.96 -1.08,0 -1.93,-0.32 -2.57,-0.96 -0.64,-0.64 -1.2,-1.69 -1.69,-3.16 l -2.06,-7.79 c -0.89,-0.2 -1.92,-0.49 -3.1,-0.88 -0.99,-0.2 -2.19,-0.42 -3.62,-0.66 -1.43,-0.24 -3.08,-0.37 -4.95,-0.37 -5.03,0 -8.58,0.86 -10.64,2.57 -2.07,1.72 -3.11,3.95 -3.11,6.69 0,2.74 0.96,4.9 2.88,6.47 1.92,1.57 4.33,2.92 7.23,4.04 2.9,1.13 6.03,2.23 9.37,3.31 3.34,1.08 6.47,2.48 9.37,4.19 2.9,1.72 5.31,3.9 7.23,6.54 1.92,2.65 2.88,6.08 2.88,10.29 0,3.04 -0.61,5.91 -1.84,8.6 -1.23,2.7 -3.09,5.02 -5.59,6.98 -2.5,1.96 -5.61,3.53 -9.34,4.7 -3.72,1.18 -8.13,1.76 -13.23,1.76 -5.1,0 -9.56,-0.47 -12.79,-1.4 -3.23,-0.93 -5.34,-1.93 -6.32,-3.01 -0.78,-0.68 -1.3,-1.49 -1.54,-2.43 -0.25,-0.93 -0.37,-2.62 -0.37,-5.07 v -4.34 c 0,-0.83 0.05,-1.98 0.15,-3.45 0.19,-1.57 0.64,-2.65 1.32,-3.23 0.68,-0.59 1.57,-0.88 2.65,-0.88 1.08,0 1.93,0.29 2.57,0.88 0.64,0.59 1.2,1.67 1.69,3.23 l 2.2,8.09 z"
       id="path13" />
    <path
       class="cls-2"
       d="m 1779.94,1021.45 -8.67,-1.32 c -1.57,-0.29 -2.62,-0.74 -3.16,-1.32 -0.54,-0.59 -0.81,-1.42 -0.81,-2.5 0,-1.18 0.29,-2.08 0.88,-2.72 0.59,-0.64 1.71,-1.2 3.38,-1.69 1.66,-0.39 3.65,-0.74 5.95,-1.03 2.3,-0.29 4.63,-0.44 6.98,-0.44 3.43,0 5.73,0.61 6.91,1.84 1.18,1.23 1.76,3.45 1.76,6.69 v 54.39 l 7.5,1.91 c 1.47,0.39 2.47,0.91 3.02,1.54 0.54,0.64 0.81,1.45 0.81,2.43 0,1.28 -0.42,2.3 -1.25,3.09 -0.83,0.79 -2.04,1.18 -3.6,1.18 h -27.2 c -1.57,0 -2.74,-0.37 -3.53,-1.1 -0.78,-0.74 -1.18,-1.74 -1.18,-3.01 0,-1.08 0.24,-1.91 0.74,-2.5 0.49,-0.59 1.57,-1.08 3.23,-1.47 l 8.23,-2.06 v -51.89 z m -2.94,-32.2 c 0,-2.65 0.88,-4.87 2.65,-6.69 1.76,-1.81 3.97,-2.72 6.61,-2.72 2.64,0 4.83,0.86 6.54,2.57 1.71,1.72 2.57,3.9 2.57,6.54 0,2.64 -0.88,4.88 -2.65,6.69 -1.76,1.81 -3.97,2.72 -6.62,2.72 -2.65,0 -4.83,-0.86 -6.54,-2.57 -1.72,-1.71 -2.57,-3.9 -2.57,-6.54 z"
       id="path14" />
    <path
       class="cls-2"
       d="m 1825.8,1020.42 h -7.06 c -3.23,0 -4.85,-1.37 -4.85,-4.12 0,-1.57 0.49,-2.82 1.47,-3.75 0.98,-0.93 2.45,-1.4 4.41,-1.4 h 6.03 l 2.21,-11.17 c 0.59,-3.23 1.37,-5.44 2.35,-6.62 0.98,-1.18 2.35,-1.76 4.12,-1.76 1.47,0 2.57,0.37 3.31,1.1 0.74,0.74 1.1,1.79 1.1,3.16 v 15.29 h 15.14 c 3.23,0 4.85,1.32 4.85,3.97 0,1.67 -0.49,2.97 -1.47,3.9 -0.98,0.93 -2.45,1.4 -4.41,1.4 h -14.11 v 41.19 c 0,4.69 0.71,7.97 2.13,9.82 1.42,1.86 3.7,2.78 6.84,2.78 2.16,0 3.87,-0.2 5.15,-0.59 1.27,-0.39 2.4,-0.59 3.38,-0.59 0.98,0 1.74,0.29 2.28,0.88 0.54,0.59 0.81,1.37 0.81,2.35 0,0.69 -0.15,1.32 -0.44,1.91 -0.29,0.59 -0.73,1.18 -1.32,1.76 -0.59,0.58 -2.04,1.45 -4.34,2.57 -2.3,1.13 -5.76,1.69 -10.36,1.69 -6.37,0 -10.83,-1.64 -13.38,-4.92 -2.55,-3.28 -3.82,-7.81 -3.82,-13.6 v -45.28 z"
       id="path15" />
    <path
       class="cls-2"
       d="m 1875.26,1021.3 -4.26,-1.47 c -1.86,-0.59 -3.11,-1.3 -3.75,-2.13 -0.64,-0.83 -0.96,-1.89 -0.96,-3.16 0,-0.98 0.37,-1.79 1.1,-2.43 0.73,-0.64 1.79,-0.96 3.16,-0.96 h 24.11 c 1.47,0 2.55,0.32 3.23,0.96 0.68,0.64 1.03,1.45 1.03,2.43 0,1.27 -0.32,2.26 -0.96,2.94 -0.64,0.69 -1.89,1.37 -3.75,2.06 l -5.29,1.62 14.7,37.63 c 0.69,1.76 1.27,3.36 1.76,4.78 0.49,1.42 0.93,2.72 1.32,3.9 0.39,1.18 0.78,2.35 1.18,3.53 h 0.29 c 0.39,-1.18 0.78,-2.35 1.18,-3.53 0.39,-1.18 0.83,-2.5 1.32,-3.97 0.49,-1.47 1.08,-3.04 1.76,-4.7 l 14.85,-37.63 -5.29,-1.62 c -1.86,-0.68 -3.14,-1.37 -3.82,-2.06 -0.69,-0.68 -1.03,-1.67 -1.03,-2.94 0,-0.98 0.37,-1.79 1.1,-2.43 0.74,-0.64 1.79,-0.96 3.16,-0.96 h 21.76 c 1.47,0 2.57,0.32 3.31,0.96 0.73,0.64 1.1,1.45 1.1,2.43 0,1.27 -0.32,2.33 -0.96,3.16 -0.64,0.83 -1.89,1.54 -3.75,2.13 l -4.26,1.47 -23.37,56.59 c -3.23,8.03 -6.47,14.65 -9.7,19.84 -3.23,5.19 -6.42,9.31 -9.56,12.35 -3.14,3.04 -6.3,5.15 -9.48,6.32 -3.19,1.18 -6.34,1.76 -9.48,1.76 -3.53,0 -6.15,-0.66 -7.86,-1.98 -1.72,-1.32 -2.57,-3.16 -2.57,-5.51 0,-1.96 0.49,-3.5 1.47,-4.63 0.98,-1.13 2.21,-1.69 3.68,-1.69 0.68,0 1.3,0.07 1.84,0.22 0.54,0.15 1.13,0.32 1.76,0.51 0.63,0.19 1.37,0.34 2.2,0.44 0.83,0.1 1.93,0.15 3.31,0.15 2.06,0 3.92,-0.32 5.59,-0.96 1.66,-0.64 3.28,-1.74 4.85,-3.31 1.57,-1.57 3.14,-3.7 4.7,-6.39 1.57,-2.7 3.28,-6.15 5.15,-10.36 z"
       id="path16" />
    <path
       class="cls-2"
       d="m 2002.04,1048.94 c 0,-5.98 0.93,-11.37 2.79,-16.17 1.86,-4.8 4.43,-8.89 7.7,-12.27 3.28,-3.38 7.19,-6.03 11.74,-7.94 4.55,-1.91 9.51,-2.87 14.89,-2.87 10.46,0 18.73,3.11 24.79,9.33 6.06,6.22 9.1,15.12 9.1,26.68 0,5.88 -0.91,11.25 -2.72,16.1 -1.81,4.85 -4.35,8.99 -7.63,12.42 -3.28,3.43 -7.19,6.08 -11.73,7.94 -4.55,1.86 -9.56,2.79 -15.04,2.79 -10.46,0 -18.73,-3.11 -24.79,-9.33 -6.06,-6.22 -9.1,-15.12 -9.1,-26.68 z m 13.53,-1.99 c 0,4.59 0.57,8.65 1.69,12.17 1.13,3.52 2.7,6.45 4.72,8.8 2.02,2.35 4.37,4.11 7.08,5.28 2.7,1.17 5.63,1.76 8.77,1.76 6.29,0 11.48,-2.27 15.56,-6.82 4.08,-4.54 6.12,-11.41 6.12,-20.6 0,-4.59 -0.57,-8.65 -1.7,-12.17 -1.13,-3.52 -2.68,-6.45 -4.65,-8.8 -1.97,-2.35 -4.33,-4.13 -7.08,-5.35 -2.75,-1.22 -5.7,-1.83 -8.85,-1.83 -6.29,0 -11.48,2.27 -15.56,6.82 -4.08,4.55 -6.12,11.46 -6.12,20.75 z"
       id="path17" />
    <path
       class="cls-2"
       d="m 2100.24,1020.42 h -7.94 c -3.14,0 -4.7,-1.37 -4.7,-4.12 0,-1.57 0.49,-2.82 1.47,-3.75 0.98,-0.93 2.45,-1.4 4.41,-1.4 h 6.76 v -5 c 0,-9.9 2.43,-17.37 7.28,-22.42 4.85,-5.05 11.59,-7.57 20.21,-7.57 2.84,0 5.15,0.27 6.91,0.81 1.76,0.54 2.99,1.15 3.67,1.84 0.39,0.29 0.66,0.61 0.81,0.96 0.15,0.34 0.29,0.76 0.44,1.25 0.15,0.49 0.24,1.2 0.29,2.13 0.05,0.93 0.07,2.04 0.07,3.31 v 3.75 c 0,0.83 -0.05,2.03 -0.15,3.6 -0.1,1.47 -0.49,2.52 -1.18,3.16 -0.69,0.64 -1.57,0.96 -2.65,0.96 -1.18,0 -2.11,-0.32 -2.79,-0.96 -0.69,-0.64 -1.23,-1.74 -1.62,-3.31 l -1.91,-7.64 c -0.39,0 -0.74,-0.05 -1.03,-0.15 -0.39,-0.1 -0.86,-0.2 -1.4,-0.29 -0.54,-0.1 -1.15,-0.15 -1.84,-0.15 -3.92,0 -6.89,1.2 -8.89,3.6 -2.01,2.4 -3.01,6.64 -3.01,12.72 v 9.41 h 12.94 c 3.13,0 4.7,1.32 4.7,3.97 0,1.67 -0.49,2.97 -1.47,3.9 -0.98,0.93 -2.45,1.4 -4.41,1.4 h -11.76 v 52.92 l 9.11,2.06 c 1.57,0.39 2.62,0.88 3.16,1.47 0.54,0.59 0.81,1.42 0.81,2.5 0,1.28 -0.42,2.28 -1.25,3.01 -0.83,0.74 -2.04,1.1 -3.6,1.1 h -28.96 c -1.57,0 -2.74,-0.37 -3.53,-1.1 -0.78,-0.74 -1.18,-1.74 -1.18,-3.01 0,-1.08 0.24,-1.91 0.74,-2.5 0.49,-0.59 1.57,-1.08 3.23,-1.47 l 8.23,-2.06 v -52.92 z"
       id="path18" />
    <path
       class="cls-2"
       d="m 2219.74,1042.03 -28.81,-47.33 -4.7,-1.45 c -2.06,-0.68 -3.43,-1.4 -4.12,-2.17 -0.69,-0.77 -1.03,-1.79 -1.03,-3.04 0,-0.97 0.37,-1.79 1.1,-2.46 0.74,-0.68 1.84,-1.01 3.31,-1.01 h 27.49 c 1.47,0 2.57,0.34 3.31,1.01 0.74,0.68 1.1,1.5 1.1,2.46 0,1.26 -0.34,2.27 -1.03,3.04 -0.69,0.77 -2.11,1.5 -4.26,2.17 l -5.44,1.45 21.61,36.75 h 0.29 l 20.87,-36.75 -5.29,-1.45 c -2.06,-0.68 -3.43,-1.4 -4.12,-2.17 -0.69,-0.77 -1.03,-1.79 -1.03,-3.04 0,-0.97 0.37,-1.79 1.1,-2.46 0.73,-0.68 1.79,-1.01 3.16,-1.01 h 24.4 c 1.37,0 2.43,0.34 3.16,1.01 0.74,0.68 1.1,1.5 1.1,2.46 0,1.26 -0.34,2.27 -1.03,3.04 -0.69,0.77 -2.06,1.5 -4.12,2.17 l -4.7,1.45 -28.81,47.33 v 31.31 l 9.26,2.03 c 1.57,0.39 2.62,0.9 3.16,1.52 0.54,0.63 0.81,1.47 0.81,2.54 0,1.26 -0.39,2.25 -1.18,2.97 -0.78,0.73 -1.96,1.09 -3.53,1.09 h -30.58 c -1.57,0 -2.75,-0.36 -3.53,-1.09 -0.78,-0.72 -1.18,-1.71 -1.18,-2.97 0,-1.06 0.27,-1.91 0.81,-2.54 0.54,-0.63 1.59,-1.13 3.16,-1.52 l 9.26,-2.03 v -31.31 z"
       id="path19" />
    <path
       class="cls-2"
       d="m 2269.58,1048.94 c 0,-5.98 0.93,-11.37 2.79,-16.17 1.86,-4.8 4.43,-8.89 7.7,-12.27 3.28,-3.38 7.19,-6.03 11.74,-7.94 4.55,-1.91 9.51,-2.87 14.89,-2.87 10.46,0 18.73,3.11 24.79,9.33 6.06,6.22 9.1,15.12 9.1,26.68 0,5.88 -0.91,11.25 -2.72,16.1 -1.81,4.85 -4.35,8.99 -7.63,12.42 -3.28,3.43 -7.19,6.08 -11.73,7.94 -4.55,1.86 -9.56,2.79 -15.04,2.79 -10.46,0 -18.73,-3.11 -24.79,-9.33 -6.06,-6.22 -9.1,-15.12 -9.1,-26.68 z m 13.52,-1.99 c 0,4.59 0.57,8.65 1.69,12.17 1.13,3.52 2.7,6.45 4.72,8.8 2.02,2.35 4.37,4.11 7.08,5.28 2.7,1.17 5.63,1.76 8.77,1.76 6.29,0 11.48,-2.27 15.56,-6.82 4.08,-4.54 6.12,-11.41 6.12,-20.6 0,-4.59 -0.57,-8.65 -1.7,-12.17 -1.13,-3.52 -2.68,-6.45 -4.65,-8.8 -1.97,-2.35 -4.33,-4.13 -7.08,-5.35 -2.75,-1.22 -5.7,-1.83 -8.85,-1.83 -6.29,0 -11.48,2.27 -15.56,6.82 -4.08,4.55 -6.12,11.46 -6.12,20.75 z"
       id="path20" />
    <path
       class="cls-2"
       d="m 2367.77,1021.45 -8.67,-1.32 c -1.57,-0.29 -2.62,-0.74 -3.16,-1.32 -0.54,-0.59 -0.81,-1.42 -0.81,-2.5 0,-1.18 0.29,-2.08 0.88,-2.72 0.59,-0.64 1.71,-1.2 3.38,-1.69 1.66,-0.39 3.63,-0.74 5.88,-1.03 2.25,-0.29 4.41,-0.44 6.47,-0.44 3.13,0 5.27,0.59 6.39,1.76 1.13,1.18 1.69,3.28 1.69,6.32 v 4.41 l 0.29,0.15 c 0.98,-2.06 2.16,-3.92 3.53,-5.59 1.37,-1.67 2.89,-3.09 4.56,-4.26 1.67,-1.18 3.46,-2.11 5.37,-2.79 1.91,-0.68 3.9,-1.03 5.95,-1.03 2.35,0 4.06,0.57 5.14,1.69 1.08,1.13 1.62,2.62 1.62,4.48 0,1.37 -0.17,2.62 -0.51,3.75 -0.34,1.13 -0.81,2.06 -1.4,2.79 -0.59,0.74 -1.2,1.3 -1.84,1.69 -0.64,0.39 -1.3,0.59 -1.99,0.59 -0.59,0 -1.1,-0.07 -1.54,-0.22 -0.44,-0.15 -0.88,-0.29 -1.32,-0.44 -0.44,-0.15 -0.91,-0.32 -1.4,-0.51 -0.49,-0.2 -1.08,-0.29 -1.76,-0.29 -2.35,0 -4.68,0.66 -6.98,1.98 -2.3,1.32 -4.48,3.5 -6.54,6.54 v 41.89 l 9.11,2.06 c 1.57,0.39 2.62,0.88 3.16,1.47 0.54,0.59 0.81,1.42 0.81,2.5 0,1.28 -0.42,2.28 -1.25,3.01 -0.83,0.74 -2.04,1.1 -3.6,1.1 h -28.96 c -1.57,0 -2.74,-0.37 -3.53,-1.1 -0.78,-0.74 -1.18,-1.74 -1.18,-3.01 0,-1.08 0.24,-1.91 0.74,-2.5 0.49,-0.59 1.57,-1.08 3.23,-1.47 l 8.23,-2.06 v -51.89 z"
       id="path21" />
    <path
       class="cls-2"
       d="m 2424.51,987.93 -7.79,-1.32 c -1.47,-0.29 -2.5,-0.76 -3.09,-1.4 -0.59,-0.64 -0.88,-1.49 -0.88,-2.57 0,-1.08 0.29,-1.93 0.88,-2.57 0.59,-0.64 1.71,-1.2 3.38,-1.69 1.66,-0.39 3.63,-0.74 5.88,-1.03 2.25,-0.29 4.31,-0.44 6.17,-0.44 3.33,0 5.61,0.61 6.84,1.84 1.22,1.22 1.84,3.45 1.84,6.68 v 57.41 l 24.26,-22.12 -3.53,-1.18 c -1.47,-0.49 -2.57,-1.1 -3.31,-1.84 -0.74,-0.74 -1.1,-1.79 -1.1,-3.16 0,-0.98 0.34,-1.79 1.03,-2.43 0.68,-0.64 1.76,-0.96 3.23,-0.96 h 24.55 c 1.37,0 2.43,0.32 3.16,0.96 0.74,0.64 1.1,1.45 1.1,2.43 0,1.27 -0.39,2.33 -1.18,3.16 -0.79,0.83 -2.11,1.54 -3.97,2.13 l -5.58,1.62 -24.84,21.54 10.29,12.52 c 2.45,3.04 4.78,5.67 6.98,7.88 2.2,2.21 4.26,4.13 6.17,5.75 1.91,1.62 3.75,2.92 5.51,3.9 1.76,0.98 3.48,1.82 5.15,2.5 1.18,0.49 1.96,0.98 2.35,1.47 0.39,0.49 0.59,1.18 0.59,2.06 0,1.37 -0.76,2.6 -2.28,3.68 -1.52,1.08 -3.8,1.62 -6.84,1.62 -1.96,0 -3.92,-0.3 -5.88,-0.88 -1.96,-0.59 -3.92,-1.52 -5.88,-2.8 -1.96,-1.28 -3.97,-2.97 -6.03,-5.08 -2.06,-2.11 -4.22,-4.64 -6.47,-7.59 l -17.49,-22.53 v 27.85 l 4.85,1.47 c 1.66,0.69 2.77,1.35 3.31,1.98 0.54,0.64 0.81,1.5 0.81,2.57 0,1.28 -0.47,2.28 -1.4,3.01 -0.93,0.74 -2.13,1.1 -3.6,1.1 h -23.82 c -1.47,0 -2.62,-0.37 -3.45,-1.1 -0.84,-0.74 -1.25,-1.74 -1.25,-3.01 0,-1.08 0.27,-1.93 0.81,-2.57 0.54,-0.64 1.54,-1.15 3.01,-1.54 l 7.5,-1.91 v -85.41 z"
       id="path22" />
  </g>
  <g
     id="g36"
     transform="translate(-246.04998,-845.94988)">
    <path
       class="cls-2"
       d="m 1297.94,1202.63 c -12.85,0 -24.36,6.43 -24.36,18.74 0,14.46 17.67,18.47 32.12,23.56 26.5,9.1 58.36,21.42 58.36,60.77 0,39.35 -38.28,58.09 -70.94,58.09 -28.91,0 -51.4,-10.98 -71.74,-31.32 l 25.43,-24.9 c 15.26,14.72 27.04,23.56 46.58,23.56 14.99,0 29.71,-7.23 29.71,-23.82 0,-16.59 -17.13,-22.22 -36.14,-29.18 -24.36,-9.1 -51.67,-19.81 -51.67,-55.68 0,-35.87 30.25,-52.47 61.3,-52.47 24.09,0 43.1,7.76 62.11,22.22 l -21.95,27.31 c -10.44,-8.83 -24.36,-16.87 -38.82,-16.87 z"
       id="path23" />
    <path
       class="cls-2"
       d="m 1439.27,1251.36 v 54.61 c 0,4.28 0,8.03 0.54,12.05 1.07,8.3 4.28,13.39 12.31,13.39 5.89,0 10.44,-1.61 15.26,-4.02 l 11.78,28.11 c -9.1,5.35 -22.49,8.3 -33.46,8.3 -21.95,0 -36.68,-12.05 -41.76,-30.25 -2.14,-6.96 -2.68,-15.26 -2.68,-23.56 v -58.63 h -16.86 v -31.59 h 16.86 l 5.89,-31.05 h 32.12 v 31.05 h 35.87 v 31.59 z"
       id="path24" />
    <path
       class="cls-2"
       d="m 1603.1,1360.58 -2.94,-19.27 c -11.24,15.79 -28.11,22.49 -43.64,22.49 -15.53,0 -28.64,-7.23 -37.48,-18.47 -10.98,-14.19 -12.58,-32.39 -12.58,-52.47 v -73.08 h 38.01 v 71.21 c 0,10.44 0.27,22.22 4.28,30.25 3.48,6.96 10.44,9.9 18.74,9.9 11.24,0 23.56,-6.42 30.52,-17.94 v -93.43 h 38.01 v 140.81 h -32.93 z"
       id="path25" />
    <path
       class="cls-2"
       d="m 1782.18,1360.58 -3.21,-17.4 c -9.9,15.53 -28.91,20.61 -43.37,20.61 -37.21,0 -65.59,-33.19 -65.59,-74.15 0,-40.96 27.84,-73.08 66.12,-73.08 13.38,0 30.25,4.82 40.96,16.86 v -73.62 h 38.01 v 200.78 h -32.93 z m -5.08,-96.11 c -9.64,-11.24 -20.88,-15.26 -32.66,-15.26 -24.36,0 -35.6,21.68 -35.6,41.49 0,19.81 13.38,40.42 35.07,40.42 12.05,0 24.9,-4.55 33.19,-18.47 v -48.19 z"
       id="path26" />
    <path
       class="cls-2"
       d="m 1887.65,1299.54 c 2.68,19.27 15.26,33.73 35.34,33.73 18.2,0 27.57,-7.5 36.68,-20.88 l 24.9,16.86 c -16.06,23.29 -34,34.53 -64.25,34.53 -42.57,0 -71.21,-29.71 -71.21,-72.01 0,-42.3 31.05,-75.22 71.48,-75.22 40.43,0 68,27.57 68,65.05 0,5.62 -0.8,12.31 -1.87,17.94 h -99.05 z m 62.1,-25.96 c -0.8,-16.87 -12.58,-27.31 -28.11,-27.31 -18.2,0 -28.11,11.51 -32.12,27.31 z"
       id="path27" />
    <path
       class="cls-2"
       d="m 2055.76,1219.77 2.94,19.27 c 11.24,-15.79 28.11,-22.49 43.64,-22.49 15.53,0 28.64,7.23 37.48,18.47 10.98,14.19 12.58,32.39 12.58,52.47 v 73.08 h -38.01 v -71.21 c 0,-10.44 -0.27,-22.22 -4.28,-30.25 -3.48,-6.96 -10.44,-9.9 -18.74,-9.9 -11.24,0 -23.56,6.42 -30.52,17.94 v 93.43 h -38.01 v -140.81 h 32.93 z"
       id="path28" />
    <path
       class="cls-2"
       d="m 2234.57,1251.36 v 54.61 c 0,4.28 0,8.03 0.54,12.05 1.07,8.3 4.28,13.39 12.31,13.39 5.89,0 10.44,-1.61 15.26,-4.02 l 11.78,28.11 c -9.1,5.35 -22.49,8.3 -33.46,8.3 -21.95,0 -36.68,-12.05 -41.76,-30.25 -2.14,-6.96 -2.68,-15.26 -2.68,-23.56 v -58.63 h -16.86 v -31.59 h 16.86 l 5.89,-31.05 h 32.12 v 31.05 h 35.87 v 31.59 z"
       id="path29" />
    <path
       class="cls-2"
       d="m 2379.39,1258.05 c -7.23,-6.42 -17.13,-11.78 -27.84,-11.78 -7.23,0 -13.65,4.02 -13.65,10.71 0,8.83 10.44,13.38 22.22,18.2 18.2,7.5 41.23,16.6 41.23,43.37 0,31.05 -26.77,45.24 -54.08,45.24 -21.95,0 -41.23,-8.57 -56.75,-24.09 l 21.68,-22.49 c 10.71,10.44 19.54,16.6 33.19,16.6 7.76,0 17.94,-3.75 17.94,-12.31 0,-9.91 -12.85,-14.19 -26.77,-20.35 -16.86,-7.23 -35.34,-16.87 -35.34,-41.49 0,-28.64 24.63,-43.1 50.33,-43.1 18.74,0 35.61,6.16 48.72,18.47 z"
       id="path30" />
    <path
       class="cls-2"
       d="m 2448.18,1173.19 h 40.42 l -19.54,73.89 h -36.14 z"
       id="path31" />
    <path
       class="cls-2"
       d="m 1382.8,1532.72 c 0,58.89 -22.49,91.55 -76.03,91.55 -53.54,0 -74.96,-32.66 -74.96,-91.55 v -99.05 h 38.28 v 104.14 c 0,35.87 14.46,53 37.21,53 22.75,0 37.21,-17.13 37.21,-53 v -104.14 h 38.28 v 99.05 z"
       id="path32" />
    <path
       class="cls-2"
       d="m 1461.22,1480.25 2.94,19.27 c 11.24,-15.8 28.11,-22.49 43.64,-22.49 15.53,0 28.64,7.23 37.48,18.47 10.98,14.19 12.58,32.39 12.58,52.47 v 73.08 h -38.01 v -71.21 c 0,-10.44 -0.27,-22.22 -4.28,-30.25 -3.48,-6.96 -10.44,-9.9 -18.74,-9.9 -11.24,0 -23.56,6.42 -30.52,17.94 v 93.43 h -38.02 v -140.81 z"
       id="path33" />
    <path
       class="cls-2"
       d="m 1600.42,1460.7 v -32.39 h 38.01 v 32.39 z m 0,160.36 v -140.81 h 38.01 v 140.81 z"
       id="path34" />
    <path
       class="cls-2"
       d="m 1819.93,1550.65 c 0,41.49 -30.79,73.62 -73.62,73.62 -42.83,0 -73.89,-32.12 -73.89,-73.62 0,-41.5 30.79,-73.62 73.89,-73.62 43.1,0 73.62,32.12 73.62,73.62 z m -73.62,-40.95 c -20.88,0 -35.07,17.94 -35.07,40.96 0,23.02 14.19,40.96 35.07,40.96 20.88,0 34.8,-17.94 34.8,-40.96 0,-23.02 -13.92,-40.96 -34.8,-40.96 z"
       id="path35" />
    <path
       class="cls-2"
       d="m 1886.84,1480.25 2.94,19.27 c 11.24,-15.8 28.11,-22.49 43.64,-22.49 15.53,0 28.64,7.23 37.48,18.47 10.98,14.19 12.58,32.39 12.58,52.47 v 73.08 h -38.01 v -71.21 c 0,-10.44 -0.27,-22.22 -4.28,-30.25 -3.48,-6.96 -10.44,-9.9 -18.74,-9.9 -11.24,0 -23.56,6.42 -30.52,17.94 v 93.43 h -38.01 v -140.81 h 32.93 z"
       id="path36" />
  </g>
</svg>
